<?xml version="1.0" encoding="UTF-8"?>
<svg width="81px" height="87px" viewBox="0 0 81 87" version="1.1" xmlns="http://www.w3.org/2000/svg" xmlns:xlink="http://www.w3.org/1999/xlink">
    <!-- Generator: Sketch 45.1 (43504) - http://www.bohemiancoding.com/sketch -->
    <title>breakfast</title>
    <desc>Created with Sketch.</desc>
    <defs></defs>
    <g id="Page-1" stroke="none" stroke-width="1" fill="none" fill-rule="evenodd" opacity="0.29">
        <g id="v3" transform="translate(-42.000000, -767.000000)" fill-rule="nonzero" fill="#000000">
            <g id="Articles-tab" transform="translate(42.000000, 767.000000)">
                <g id="breakfast">
                    <path d="M73.898604,61.2508786 L70.6638751,61.2508786 L70.6638751,58.0286489 C70.6638751,57.2197226 70.0080628,56.5639102 69.1991365,56.5639102 L29.9460935,56.5639102 C29.1371672,56.5639102 28.4813549,57.2197226 28.4813549,58.0286489 L28.4813549,70.8199186 C28.4813549,79.596242 35.6214676,86.7361594 44.397791,86.7361594 L54.7476343,86.7361594 C59.5988487,86.7361594 63.9473648,84.5519411 66.8690302,81.1182031 L74.2517036,77.4688556 C78.0014346,75.615473 80.3307596,71.8655467 80.3307596,67.682839 C80.3307596,64.1362185 77.4452245,61.2508786 73.898604,61.2508786 Z M67.7343978,67.7498264 L31.4108322,67.7498264 L31.4108322,66.3829323 L67.7343978,66.3829323 L67.7343978,67.7498264 Z M67.7343978,59.4933875 L67.7343978,63.453455 L31.4108322,63.453455 L31.4108322,59.4933875 L67.7343978,59.4933875 Z M54.747439,83.8066821 L44.3975957,83.8066821 C37.236586,83.8066821 31.4106369,77.9807329 31.4106369,70.8199186 L31.4106369,70.679499 L67.7342025,70.679499 L67.7342025,70.8199186 C67.7343978,77.9809282 61.9084486,83.8066821 54.747439,83.8066821 Z M72.9535546,74.8426768 L69.6151222,76.4929491 C70.2902691,74.7294037 70.6638751,72.8180174 70.6638751,70.8199186 L70.6638751,64.1803559 L73.898604,64.1803559 C75.8299107,64.1803559 77.4012823,65.7515323 77.4012823,67.682839 C77.4012823,70.7431663 75.6969124,73.4867194 72.9535546,74.8426768 Z" id="Shape"></path>
                    <path d="M27.4677557,77.7100492 L3.0855208,77.7100492 L3.0855208,14.1427352 L47.0942772,14.1427352 L47.0942772,52.3950687 C47.0942772,53.2039951 47.7500895,53.8598074 48.5590158,53.8598074 C49.3679422,53.8598074 50.0237545,53.2039951 50.0237545,52.3950687 L50.0237545,12.6779966 C50.0237545,11.8690703 49.3679422,11.2132579 48.5590158,11.2132579 L1.62078214,11.2132579 C0.811855811,11.2132579 0.156043491,11.8690703 0.156043491,12.6779966 L0.156043491,79.1747879 C0.156043491,79.9837142 0.811855811,80.6395265 1.62078214,80.6395265 L27.467951,80.6395265 C28.2768774,80.6395265 28.9326897,79.9837142 28.9326897,79.1747879 C28.9326897,78.3658615 28.2766821,77.7100492 27.4677557,77.7100492 Z" id="Shape"></path>
                    <path d="M23.2950082,19.5235992 C23.2950082,18.7146728 22.6391959,18.0588605 21.8302696,18.0588605 L8.46599412,18.0588605 C7.65706779,18.0588605 7.00125547,18.7146728 7.00125547,19.5235992 L7.00125547,30.6599095 C7.00125547,31.4688358 7.65706779,32.1246481 8.46599412,32.1246481 L21.8302696,32.1246481 C22.6391959,32.1246481 23.2950082,31.4688358 23.2950082,30.6599095 L23.2950082,19.5235992 Z M20.3655309,29.1951708 L9.93073277,29.1951708 L9.93073277,20.9883378 L20.3655309,20.9883378 L20.3655309,29.1951708 Z" id="Shape"></path>
                    <path d="M21.8302696,35.2812576 L8.46599412,35.2812576 C7.65706779,35.2812576 7.00125547,35.9370699 7.00125547,36.7459963 C7.00125547,37.5549226 7.65706779,38.2107349 8.46599412,38.2107349 L21.8302696,38.2107349 C22.6391959,38.2107349 23.2950082,37.5549226 23.2950082,36.7459963 C23.2950082,35.9370699 22.6391959,35.2812576 21.8302696,35.2812576 Z" id="Shape"></path>
                    <path d="M21.8302696,41.0488125 L8.46599412,41.0488125 C7.65706779,41.0488125 7.00125547,41.7046248 7.00125547,42.5135512 C7.00125547,43.3224775 7.65706779,43.9782898 8.46599412,43.9782898 L21.8302696,43.9782898 C22.6391959,43.9782898 23.2950082,43.3224775 23.2950082,42.5135512 C23.2950082,41.7046248 22.6391959,41.0488125 21.8302696,41.0488125 Z" id="Shape"></path>
                    <path d="M21.8302696,46.8163674 L8.46599412,46.8163674 C7.65706779,46.8163674 7.00125547,47.4721798 7.00125547,48.2811061 C7.00125547,49.0900324 7.65706779,49.7458447 8.46599412,49.7458447 L21.8302696,49.7458447 C22.6391959,49.7458447 23.2950082,49.0900324 23.2950082,48.2811061 C23.2950082,47.4721798 22.6391959,46.8163674 21.8302696,46.8163674 Z" id="Shape"></path>
                    <path d="M21.8302696,52.5839224 L8.46599412,52.5839224 C7.65706779,52.5839224 7.00125547,53.2397347 7.00125547,54.048661 C7.00125547,54.8575874 7.65706779,55.5133997 8.46599412,55.5133997 L21.8302696,55.5133997 C22.6391959,55.5133997 23.2950082,54.8575874 23.2950082,54.048661 C23.2950082,53.2397347 22.6391959,52.5839224 21.8302696,52.5839224 Z" id="Shape"></path>
                    <path d="M21.8302696,58.3514773 L8.46599412,58.3514773 C7.65706779,58.3514773 7.00125547,59.0072896 7.00125547,59.8162159 C7.00125547,60.6251423 7.65706779,61.2809546 8.46599412,61.2809546 L21.8302696,61.2809546 C22.6391959,61.2809546 23.2950082,60.6251423 23.2950082,59.8162159 C23.2950082,59.0072896 22.6391959,58.3514773 21.8302696,58.3514773 Z" id="Shape"></path>
                    <path d="M21.8302696,64.1190322 L8.46599412,64.1190322 C7.65706779,64.1190322 7.00125547,64.7748445 7.00125547,65.5837709 C7.00125547,66.3926972 7.65706779,67.0485095 8.46599412,67.0485095 L21.8302696,67.0485095 C22.6391959,67.0485095 23.2950082,66.3926972 23.2950082,65.5837709 C23.2950082,64.7748445 22.6391959,64.1190322 21.8302696,64.1190322 Z" id="Shape"></path>
                    <path d="M21.8302696,69.8865871 L8.46599412,69.8865871 C7.65706779,69.8865871 7.00125547,70.5423994 7.00125547,71.3513258 C7.00125547,72.1602521 7.65706779,72.8160644 8.46599412,72.8160644 L21.8302696,72.8160644 C22.6391959,72.8160644 23.2950082,72.1602521 23.2950082,71.3513258 C23.2950082,70.5423994 22.6391959,69.8865871 21.8302696,69.8865871 Z" id="Shape"></path>
                    <path d="M41.7138039,18.0588605 L28.3495284,18.0588605 C27.5406021,18.0588605 26.8847897,18.7146728 26.8847897,19.5235992 C26.8847897,20.3325255 27.5406021,20.9883378 28.3495284,20.9883378 L41.7138039,20.9883378 C42.5227302,20.9883378 43.1785425,20.3325255 43.1785425,19.5235992 C43.1785425,18.7146728 42.5227302,18.0588605 41.7138039,18.0588605 Z" id="Shape"></path>
                    <path d="M41.7138039,23.8264154 L28.3495284,23.8264154 C27.5406021,23.8264154 26.8847897,24.4822278 26.8847897,25.2911541 C26.8847897,26.1000804 27.5406021,26.7558927 28.3495284,26.7558927 L41.7138039,26.7558927 C42.5227302,26.7558927 43.1785425,26.1000804 43.1785425,25.2911541 C43.1785425,24.4822278 42.5227302,23.8264154 41.7138039,23.8264154 Z" id="Shape"></path>
                    <path d="M41.7138039,29.5939704 L28.3495284,29.5939704 C27.5406021,29.5939704 26.8847897,30.2497827 26.8847897,31.058709 C26.8847897,31.8676353 27.5406021,32.5234477 28.3495284,32.5234477 L41.7138039,32.5234477 C42.5227302,32.5234477 43.1785425,31.8676353 43.1785425,31.058709 C43.1785425,30.2497827 42.5227302,29.5939704 41.7138039,29.5939704 Z" id="Shape"></path>
                    <path d="M41.7138039,35.3615253 L28.3495284,35.3615253 C27.5406021,35.3615253 26.8847897,36.0173376 26.8847897,36.8262639 C26.8847897,37.6351903 27.5406021,38.2910026 28.3495284,38.2910026 L41.7138039,38.2910026 C42.5227302,38.2910026 43.1785425,37.6351903 43.1785425,36.8262639 C43.1785425,36.0173376 42.5227302,35.3615253 41.7138039,35.3615253 Z" id="Shape"></path>
                    <path d="M41.7138039,41.43648 L28.3495284,41.43648 C27.5406021,41.43648 26.8847897,42.0922923 26.8847897,42.9012187 L26.8847897,52.3950687 C26.8847897,53.2039951 27.5406021,53.8598074 28.3495284,53.8598074 L41.7138039,53.8598074 C42.5227302,53.8598074 43.1785425,53.2039951 43.1785425,52.3950687 L43.1785425,42.9012187 C43.1785425,42.0922923 42.5227302,41.43648 41.7138039,41.43648 Z M40.2490652,50.9303301 L29.814267,50.9303301 L29.814267,44.3659573 L40.2490652,44.3659573 L40.2490652,50.9303301 Z" id="Shape"></path>
                    <path d="M45.9666237,8.60934321 C46.6316151,9.06985704 47.5442449,8.90385333 48.0047587,8.23886198 C50.3063514,4.91429583 54.0908455,2.92947731 58.1280558,2.92947731 C64.9119441,2.92947731 70.4312746,8.44861255 70.4312746,15.2326961 C70.4312746,22.0167796 64.9121394,27.5357196 58.1280558,27.5357196 C56.4664563,27.5357196 54.8554391,27.2105476 53.3395322,26.569578 C52.5946638,26.2541709 51.7351551,26.602974 51.4199434,27.3480378 C51.1049269,28.0931015 51.4533394,28.9524148 52.1984031,29.2676266 C54.0773699,30.0622961 56.0723439,30.4651969 58.1280558,30.4651969 C66.5272579,30.4651969 73.3607519,23.6318981 73.3607519,15.2326961 C73.3607519,6.83329877 66.5274532,0 58.1280558,0 C53.1295863,0 48.4447662,2.45646437 45.5961425,6.5712082 C45.135824,7.23639484 45.3016324,8.14882938 45.9666237,8.60934321 Z" id="Shape"></path>
                    <path d="M53.2010656,16.6974348 L58.1282511,16.6974348 C58.9371774,16.6974348 59.5929898,16.0416224 59.5929898,15.2326961 L59.5929898,10.5265885 C59.5929898,9.71766212 58.9371774,9.0618498 58.1282511,9.0618498 C57.3193248,9.0618498 56.6635125,9.71766212 56.6635125,10.5265885 L56.6635125,13.7679574 L53.2010656,13.7679574 C52.3921392,13.7679574 51.7363269,14.4237698 51.7363269,15.2326961 C51.7363269,16.0416224 52.3921392,16.6974348 53.2010656,16.6974348 Z" id="Shape"></path>
                </g>
            </g>
        </g>
    </g>
</svg>