<?xml version="1.0" encoding="UTF-8"?>
<svg width="78px" height="68px" viewBox="0 0 78 68" version="1.1" xmlns="http://www.w3.org/2000/svg" xmlns:xlink="http://www.w3.org/1999/xlink">
    <!-- Generator: Sketch 45.1 (43504) - http://www.bohemiancoding.com/sketch -->
    <title>cardiogram</title>
    <desc>Created with Sketch.</desc>
    <defs></defs>
    <g id="Page-1" stroke="none" stroke-width="1" fill="none" fill-rule="evenodd" opacity="0.65234375">
        <g id="v3" transform="translate(-47.000000, -55.000000)" fill-rule="nonzero">
            <g id="cardiogram" transform="translate(47.000000, 55.000000)">
                <path d="M28.9265749,14.8909131 C29.1613715,14.2364406 29.8197265,13.8334039 30.5096958,13.9238098 C31.1991105,14.0136611 31.7330417,14.5716267 31.7923879,15.2643692 L34.1558841,42.8788561 L38.5817081,26.9254421 C38.7627049,26.273373 39.3604194,25.824856 40.0396657,25.8422346 C40.7161389,25.8572098 41.2962899,26.3292065 41.4482606,26.9886708 L43.9128857,37.6807916 L48.120922,20.0004205 C48.2856494,19.3086024 48.9201549,18.834757 49.6293517,18.8654469 C50.3396577,18.8989101 50.92554,19.4332111 51.0244504,20.1374161 L54.1649939,42.5266612 L55.5730342,37.9764135 C55.764754,37.357068 56.3376947,36.934619 56.9860662,36.934619 L72.8093253,36.934619 C75.1317782,33.4378131 76.7844137,29.9563522 77.3342446,26.6076347 C78.5411362,19.196011 77.3638253,13.0835337 73.8270855,8.44288003 C70.2557733,3.75804021 64.8308619,1.08505623 57.2269638,0.2706632 C56.4963211,0.197266144 55.8287222,0.162693727 55.1670394,0.162693727 C49.7855746,0.162693727 44.3597388,2.16401145 40.1899725,5.54915024 C36.0261224,2.16401145 30.5954798,0.162693727 25.2243682,0.162693727 C24.5560298,0.162693727 23.894347,0.197266144 23.1587125,0.2706632 C15.5549993,1.08505623 10.1243567,3.75804021 6.55766647,8.44288003 C3.0218511,13.0837186 1.84343085,19.196011 3.05069226,26.6076347 C3.60921243,30.0092277 5.30418526,33.546707 7.6828415,37.0974976 L20.9588345,37.0974976 L28.9265749,14.8909131 Z" id="Shape" fill="#E74424"></path>
                <path d="M55.0331868,49.7273377 C54.8283406,50.3892053 54.1899526,50.8207135 53.5014624,50.7643253 C52.8111233,50.7086766 52.2516787,50.1814011 52.1555415,49.4954991 L49.1839776,28.3103724 L45.3288758,44.508012 C45.1704343,45.1745016 44.5747534,45.6444646 43.8901456,45.6446495 C43.8882968,45.6446495 43.8866329,45.6446495 43.8849689,45.6446495 C43.1979577,45.6422461 42.6032012,45.1671064 42.448827,44.4978436 L39.8747535,33.3309529 L34.8086926,51.5916599 C34.6295447,52.2367035 34.0425531,52.6752371 33.3845679,52.6754219 C33.3387178,52.6754219 33.2928678,52.6732034 33.246648,52.6689512 C32.5339385,52.6027644 31.9709813,52.0355549 31.9099711,51.3222908 L29.4229756,22.2668551 L23.3918452,39.0760752 C23.1810829,39.6636214 22.6240418,40.0555653 21.9997046,40.0555653 L9.81302005,40.0555653 C14.7309926,46.4634796 21.4707651,52.8050223 27.3767323,58.3610131 C27.3767323,58.3610131 32.4098846,63.4137626 33.9203479,64.7086567 C35.0603133,65.6848191 37.5225349,67.6467575 40.1951492,67.6467575 C42.8638809,67.6467575 45.3318338,65.6848191 46.4649587,64.7086567 C47.9756069,63.4135777 53.0085743,58.3610131 53.0085743,58.3610131 C58.9640891,52.7586176 65.7678299,46.355695 70.6963405,39.8926867 L58.0768537,39.8926867 L55.0331868,49.7273377 Z" id="Shape" fill="#E74424"></path>
                <path d="M76.0273333,36.934619 L72.8095102,36.934619 L56.9862511,36.934619 C56.3378796,36.934619 55.7651237,37.357068 55.5732191,37.9764135 L54.1651788,42.5266612 L51.0246352,20.1374161 C50.9257249,19.4332111 50.3398426,18.8989101 49.6295365,18.8654469 C48.9203398,18.834757 48.2856494,19.3086024 48.1211069,20.0004205 L43.9130706,37.6807916 L41.4484455,26.9886708 C41.2964748,26.3292065 40.7163237,25.857025 40.0398506,25.8422346 C39.3606043,25.824856 38.7628897,26.273373 38.581893,26.9254421 L34.1560689,42.8788561 L31.7925728,15.2643692 C31.7334114,14.5716267 31.1994802,14.0136611 30.5098807,13.9238098 C29.8199114,13.8334039 29.1615564,14.2364406 28.9267598,14.8909131 L20.9590194,37.0974976 L7.68302638,37.0974976 L1.47903388,37.0974976 C0.662237421,37.0974976 0,37.759735 0,38.5765315 C0,39.3933279 0.662237421,40.0555653 1.47903388,40.0555653 L9.81302005,40.0555653 L21.9997046,40.0555653 C22.6238569,40.0555653 23.1810829,39.6636214 23.3918452,39.0760752 L29.4229756,22.2668551 L31.9099711,51.3222908 C31.9709813,52.0355549 32.5339385,52.6025795 33.246648,52.6689512 C33.2928678,52.6732034 33.3387178,52.6754219 33.3845679,52.6754219 C34.042738,52.6754219 34.6295447,52.2367035 34.8086926,51.5916599 L39.8747535,33.3309529 L42.448827,44.4978436 C42.6032012,45.1672913 43.1979577,45.6422461 43.8849689,45.6446495 C43.8868177,45.6446495 43.8884816,45.6446495 43.8901456,45.6446495 C44.5747534,45.6446495 45.1704343,45.1745016 45.3288758,44.508012 L49.1839776,28.3103724 L52.1555415,49.4954991 C52.2518636,50.1814011 52.8111233,50.7086766 53.5014624,50.7643253 C54.1901375,50.8207135 54.8283406,50.3892053 55.0331868,49.7273377 L58.0766688,39.8926867 L70.6961556,39.8926867 L76.0273333,39.8926867 C76.8441297,39.8926867 77.5063671,39.2304493 77.5063671,38.4136529 C77.5063671,37.5968564 76.8441297,36.934619 76.0273333,36.934619 Z" id="Shape" fill="#F7F1E6"></path>
            </g>
        </g>
    </g>
</svg>