<?xml version="1.0" encoding="UTF-8"?>
<svg width="43px" height="43px" viewBox="0 0 43 43" version="1.1" xmlns="http://www.w3.org/2000/svg" xmlns:xlink="http://www.w3.org/1999/xlink">
    <!-- Generator: Sketch 45.1 (43504) - http://www.bohemiancoding.com/sketch -->
    <title>checked</title>
    <desc>Created with Sketch.</desc>
    <defs></defs>
    <g id="Page-1" stroke="none" stroke-width="1" fill="none" fill-rule="evenodd">
        <g id="v3" transform="translate(-1268.000000, -455.000000)" fill-rule="nonzero">
            <g id="Group" transform="translate(781.000000, 350.000000)">
                <g id="cell-one" transform="translate(0.000000, 65.000000)">
                    <g id="checked" transform="translate(487.000000, 40.000000)">
                        <circle id="Oval" fill="#3DB39E" cx="21.4011484" cy="21.4011484" r="21.4011484"></circle>
                        <path d="M39.3248437,9.73087446 L20.398081,29.3264336 L20.4315336,31.4330959 L21.3009605,31.4330959 L41.7993992,14.9139837 C41.1974229,13.074857 40.3614485,11.3025505 39.3248437,9.73087446 Z" id="Shape" fill="#37A18E"></path>
                        <path d="M42.4012906,8.79462728 L38.6225946,5.04938386 C38.120976,4.54776526 37.2850016,4.54776526 36.7500153,5.04938386 L20.5987115,21.735674 L13.6098432,14.8471634 C13.1082246,14.3455448 12.2722502,14.3455448 11.737264,14.8471634 L8.39328146,18.1576934 C7.89166286,18.659312 7.89166286,19.4952864 8.39328146,19.996905 L19.5621066,31.0652875 C19.8630947,31.3662757 20.2643557,31.4665485 20.6656166,31.4330959 C21.0668775,31.4665485 21.4681384,31.3661908 21.7691266,31.0652875 L42.4012906,10.6672065 C42.9029092,10.1321354 42.9029092,9.29616098 42.4012906,8.79462728 Z" id="Shape" fill="#F2F1EF"></path>
                        <path d="M21.7691266,31.0652875 L42.4012906,10.6672065 C42.9029092,10.1655879 42.9029092,9.32961354 42.4012906,8.82799494 L41.7993992,8.25955612 L20.632164,29.058898 L8.92835262,17.6560748 L8.42673402,18.1576934 C7.92511542,18.659312 7.92511542,19.4952864 8.42673402,19.996905 L19.5955592,31.0653725 C19.8965473,31.3663606 20.2978082,31.4666334 20.6990691,31.4331808 C21.0668775,31.4665485 21.4681384,31.3662757 21.7691266,31.0652875 Z" id="Shape" fill="#E6E5E3"></path>
                    </g>
                </g>
            </g>
        </g>
    </g>
</svg>