<?xml version="1.0" encoding="UTF-8"?>
<svg width="78px" height="78px" viewBox="0 0 78 78" version="1.1" xmlns="http://www.w3.org/2000/svg" xmlns:xlink="http://www.w3.org/1999/xlink">
    <!-- Generator: Sketch 45.1 (43504) - http://www.bohemiancoding.com/sketch -->
    <title>exercise-gym</title>
    <desc>Created with Sketch.</desc>
    <defs></defs>
    <g id="Page-1" stroke="none" stroke-width="1" fill="none" fill-rule="evenodd" opacity="0.5">
        <g id="v3" transform="translate(-1148.000000, -438.000000)" fill-rule="nonzero" fill="#010002">
            <g id="Group" transform="translate(781.000000, 350.000000)">
                <g id="cell-one" transform="translate(0.000000, 65.000000)">
                    <g id="exercise-gym" transform="translate(367.000000, 23.000000)">
                        <path d="M55.2689478,14.2937139 C56.79766,14.2937139 58.0890083,13.7182693 59.1433089,12.5673802 C60.1976096,11.4164911 60.7246808,10.0464398 60.7246808,8.45706198 C60.7246808,6.86768412 60.1976096,5.49763285 59.1433089,4.34674374 C58.0888502,3.19585463 56.7973437,2.62041008 55.2689478,2.62041008 C53.7400775,2.62041008 52.448571,3.19585463 51.3945867,4.34674374 C50.340286,5.49763285 49.8132148,6.86768412 49.8132148,8.45706198 C49.8132148,10.0464398 50.340286,11.4164911 51.3945867,12.5673802 C52.4488873,13.7182693 53.7402356,14.2937139 55.2689478,14.2937139 Z" id="Shape"></path>
                        <path d="M59.3014461,15.6090157 L51.3945867,15.6090157 L37.6366511,0.976282787 C37.1095799,0.427144271 36.4506222,0.125611325 35.6599363,0.0720127755 C34.8692503,0.0184142257 34.2102927,0.292325833 33.6832214,0.894076423 C33.1558339,1.4969779 32.8659684,2.20937826 32.8134669,3.03144191 C32.7608072,3.85350555 32.998013,4.5386134 33.5250842,5.08660102 L47.9155685,20.3769849 L47.9155685,71.1805183 C47.9155685,72.0574958 48.2054339,72.8246456 48.785323,73.4822965 C49.3652121,74.1399474 50.0768295,74.4687728 50.9201751,74.4687728 C51.7635207,74.4687728 52.501547,74.1399474 53.1340957,73.4822965 C53.7666445,72.8246456 54.0829189,72.0574958 54.0829189,71.1805183 L54.0829189,43.5591797 L56.6131139,43.5591797 L56.6131139,71.1805183 C56.6131139,72.0574958 56.9029794,72.8246456 57.4828685,73.4822965 C58.0627575,74.1399474 58.7743749,74.4687728 59.6177205,74.4687728 C60.4610662,74.4687728 61.1990924,74.1399474 61.8316412,73.4822965 C62.4641899,72.8246456 62.7804643,72.0574958 62.7804643,71.1805183 L62.7804643,20.3769849 L77.0128114,5.08660102 C77.5398826,4.5386134 77.8034973,3.85350555 77.8034973,3.03144191 C77.8034973,2.20937826 77.5136319,1.4969779 76.9337428,0.894076423 C76.3538537,0.291174944 75.6686453,0.0172633366 74.8779593,0.0720127755 C74.0872734,0.126762214 73.4283157,0.42829516 72.9012445,0.976282787 L59.3014461,15.6090157 Z" id="Shape"></path>
                        <path d="M30.3623404,37.9691469 C29.4135173,36.9826705 28.306557,36.4894323 27.0414594,36.4894323 L15.4974446,36.4894323 C14.2323471,36.4894323 13.1780464,36.9826705 12.3347008,37.9691469 L0.790685949,50.3001016 C0.263614695,50.9577525 0,51.6976098 0,52.5196735 C0,53.3417371 0.289865469,54.0266805 0.869754543,54.5748326 C1.44964362,55.1226558 2.13485206,55.3968962 2.92553801,55.3968962 C3.71622396,55.3968962 4.37518163,55.0680708 4.90225288,54.4104199 L13.7579355,44.8744815 L13.7579355,57.6986744 L3.79529255,57.6986744 C2.84646941,57.6986744 2.05578347,58.0274999 1.42323471,58.6851508 C0.790685949,59.3428017 0.474411569,60.1648654 0.474411569,61.1510129 C0.474411569,62.247317 0.790685949,63.1239657 1.42323471,63.7816166 L12.8091124,75.9481586 C13.2308643,76.7156372 13.8896638,77.2088754 14.7858272,77.4278732 C15.6819907,77.6471997 16.4989274,77.482787 17.2369537,76.934635 C18.0802993,76.4963106 18.6337795,75.7837459 18.8973942,74.7972695 C19.1603763,73.8107931 19.0284899,72.8792306 18.5020512,72.0022531 L12.0184264,65.0969184 L12.1765636,65.0969184 L30.6786148,65.0969184 L24.19499,72.0022531 C23.7732381,72.8792306 23.6679188,73.8107931 23.8787156,74.7972695 C24.0895125,75.7837459 24.6167419,76.5512245 25.4600875,77.0990477 C26.3034332,77.5377009 27.1469369,77.6471997 27.9902826,77.4278732 C28.8336282,77.2088754 29.5189948,76.7156372 30.046066,75.9481586 L41.2738065,63.7816166 C42.0118328,63.1239657 42.3807668,62.301902 42.3807668,61.3154257 C42.3807668,60.3292781 42.0380836,59.4795931 41.3528751,58.7673572 C40.6676667,58.0547924 39.9032315,57.6986744 39.0598859,57.6986744 L28.9391057,57.6986744 L28.9391057,45.0388943 L37.7947883,54.4104199 C38.3218596,55.0680708 38.9544084,55.3968962 39.6924346,55.3968962 C40.4304609,55.3968962 41.0892604,55.1226558 41.6691495,54.5748326 C42.2490386,54.0266805 42.538904,53.3417371 42.538904,52.5196735 C42.538904,51.6976098 42.2752893,50.9577525 41.7482181,50.3001016 L30.3623404,37.9691469 L30.3623404,37.9691469 Z" id="Shape"></path>
                        <path d="M21.4275892,35.3385432 C22.9563014,35.3385432 24.2478078,34.7630987 25.3019504,33.6122096 C26.356251,32.4613205 26.8833222,31.0638123 26.8833222,29.419685 C26.8833222,27.7755577 26.356251,26.3780495 25.3019504,25.2271604 C24.2476497,24.0762713 22.9563014,23.5008267 21.4275892,23.5008267 C19.898877,23.5008267 18.6075287,24.0762713 17.5532281,25.2271604 C16.4989274,26.3780495 15.9718562,27.7755577 15.9718562,29.419685 C15.9718562,31.0638123 16.4989274,32.4613205 17.5532281,33.6122096 C18.6075287,34.7630987 19.898877,35.3385432 21.4275892,35.3385432 Z" id="Shape"></path>
                    </g>
                </g>
            </g>
        </g>
    </g>
</svg>