<?xml version="1.0" encoding="UTF-8"?>
<svg width="96px" height="77px" viewBox="0 0 96 77" version="1.1" xmlns="http://www.w3.org/2000/svg" xmlns:xlink="http://www.w3.org/1999/xlink">
    <!-- Generator: Sketch 45.1 (43504) - http://www.bohemiancoding.com/sketch -->
    <title>gym</title>
    <desc>Created with Sketch.</desc>
    <defs></defs>
    <g id="Page-1" stroke="none" stroke-width="1" fill="none" fill-rule="evenodd">
        <g id="v3" transform="translate(-38.000000, -215.000000)" fill-rule="nonzero" fill="#000000">
            <g id="Dashboard-tab" transform="translate(1.000000, 188.000000)">
                <g id="gym" transform="translate(37.000000, 27.000000)">
                    <path d="M90.9336416,12.7626164 L87.7429875,12.7626164 L87.7429875,4.78598114 C87.7429875,2.1473102 85.5956773,0 82.9570064,0 L76.5756982,0 C73.9370272,0 71.789717,2.1473102 71.789717,4.78598114 L71.789717,17.5485975 L68.0343172,17.5485975 L67.6833452,16.6552144 C65.9922986,12.3526173 61.9130473,9.57196227 57.2897895,9.57196227 L57.1382335,9.57196227 C56.4777681,7.71978757 54.7229083,6.38130818 52.6457925,6.38130818 C51.4157953,6.38130818 50.3038524,6.86150162 49.4551384,7.62566328 C48.6064244,6.8599063 47.4944815,6.38130818 46.2644843,6.38130818 C45.0344872,6.38130818 43.9225442,6.86150162 43.0738302,7.62566328 C42.2251162,6.8599063 41.1131733,6.38130818 39.8831761,6.38130818 C38.653179,6.38130818 37.541236,6.86150162 36.692522,7.62566328 C35.8438081,6.8599063 34.7318651,6.38130818 33.501868,6.38130818 C30.863197,6.38130818 28.7158868,8.52861838 28.7158868,11.1672893 L28.7158868,17.5485975 L23.9299057,17.5485975 L23.9299057,4.78598114 C23.9299057,2.1473102 21.7825955,0 19.1439245,0 L12.7626164,0 C10.1239454,0 7.97663523,2.1473102 7.97663523,4.78598114 L7.97663523,12.7626164 L4.78598114,12.7626164 C2.1473102,12.7626164 0,14.9099266 0,17.5485975 L0,33.501868 C0,36.1405389 2.1473102,38.2878491 4.78598114,38.2878491 L7.97663523,38.2878491 L7.97663523,46.2644843 C7.97663523,48.9031552 10.1239454,51.0504655 12.7626164,51.0504655 L19.1439245,51.0504655 C21.7825955,51.0504655 23.9299057,48.9031552 23.9299057,46.2644843 L23.9299057,33.501868 L27.5481074,33.501868 L28.7908672,37.4343491 C28.8467036,37.6130257 28.9344466,37.7805351 29.0493102,37.9304958 L33.3072381,43.4391601 L30.5792288,72.1008058 C30.4691512,73.2446553 30.8488391,74.3885048 31.6225727,75.2388141 C32.3963063,76.0875281 33.497082,76.5756982 34.6473128,76.5756982 L56.2735662,76.5756982 C57.4269877,76.5756982 58.530954,76.0859328 59.3030923,75.2308375 C60.0768259,74.3757422 60.4549184,73.228702 60.3400548,72.0800666 L57.5530185,44.2081078 C57.5227073,43.9161629 57.6391661,43.629004 57.8609166,43.4391601 L66.6144761,35.936337 C67.3802331,35.2790623 67.9178583,34.4303483 68.2449003,33.501868 L71.789717,33.501868 L71.789717,46.2644843 C71.789717,48.9031552 73.9370272,51.0504655 76.5756982,51.0504655 L82.9570064,51.0504655 C85.5956773,51.0504655 87.7429875,48.9031552 87.7429875,46.2644843 L87.7429875,38.2878491 L90.9336416,38.2878491 C93.5723125,38.2878491 95.7196227,36.1405389 95.7196227,33.501868 L95.7196227,17.5485975 C95.7196227,14.9099266 93.5723125,12.7626164 90.9336416,12.7626164 Z M7.97663523,35.097195 L4.78598114,35.097195 C3.90536061,35.097195 3.19065409,34.3808932 3.19065409,33.501868 L3.19065409,17.5485975 C3.19065409,16.6695723 3.90536061,15.9532705 4.78598114,15.9532705 L7.97663523,15.9532705 L7.97663523,35.097195 Z M20.7392516,19.1439245 L20.7392516,31.9065409 L20.7392516,46.2644843 C20.7392516,47.1435095 20.0245451,47.8598114 19.1439245,47.8598114 L12.7626164,47.8598114 C11.8819958,47.8598114 11.1672893,47.1435095 11.1672893,46.2644843 L11.1672893,36.692522 L11.1672893,14.3579434 L11.1672893,4.78598114 C11.1672893,3.90695593 11.8819958,3.19065409 12.7626164,3.19065409 L19.1439245,3.19065409 C20.0245451,3.19065409 20.7392516,3.90695593 20.7392516,4.78598114 L20.7392516,19.1439245 Z M51.0504655,11.1672893 C51.0504655,10.2882641 51.765172,9.57196227 52.6457925,9.57196227 C53.526413,9.57196227 54.2411195,10.2882641 54.2411195,11.1672893 L54.2411195,19.1439245 L54.2411195,20.5685516 C54.2411195,21.1747759 53.9443887,21.721973 53.5136504,22.0410385 C53.4673859,22.072945 53.4243121,22.1080422 53.374857,22.1351628 C53.2903046,22.1846179 53.1977757,22.2117385 53.1052467,22.2404543 C53.0031458,22.2723609 52.8994495,22.2946955 52.7893719,22.3042674 C52.6601504,22.3138394 52.5341196,22.3042674 52.4096841,22.2851235 C52.3171551,22.2707656 52.2246262,22.2595983 52.1384785,22.2308824 C52.0108523,22.1878085 51.8927981,22.1176142 51.7779346,22.0410385 C51.7093355,21.994774 51.6343552,21.9596768 51.5737327,21.9038403 C51.4604645,21.8001441 51.3775075,21.6725179 51.2993365,21.5432964 C51.2658346,21.48746 51.2179748,21.4427908 51.1908542,21.3821684 C51.1031112,21.1827525 51.0504655,20.9641927 51.0504655,20.7392516 L51.0504655,11.1672893 Z M44.6691573,11.1672893 C44.6691573,10.2882641 45.3838638,9.57196227 46.2644843,9.57196227 C47.1451048,9.57196227 47.8598114,10.2882641 47.8598114,11.1672893 L47.8598114,20.7392516 C47.8598114,21.6182768 47.1451048,22.3345786 46.2644843,22.3345786 C45.3838638,22.3345786 44.6691573,21.6182768 44.6691573,20.7392516 L44.6691573,11.1672893 Z M38.2878491,11.1672893 C38.2878491,10.2882641 39.0025556,9.57196227 39.8831761,9.57196227 C40.7637967,9.57196227 41.4785032,10.2882641 41.4785032,11.1672893 L41.4785032,20.7392516 C41.4785032,21.6182768 40.7637967,22.3345786 39.8831761,22.3345786 C39.0025556,22.3345786 38.2878491,21.6182768 38.2878491,20.7392516 L38.2878491,11.1672893 Z M31.9065409,19.1439245 L31.9065409,11.1672893 C31.9065409,10.2882641 32.6212474,9.57196227 33.501868,9.57196227 C34.3824885,9.57196227 35.097195,10.2882641 35.097195,11.1672893 L35.097195,20.7392516 C35.097195,20.9641927 35.0445492,21.1827525 34.9552109,21.3837637 C34.9280903,21.4443861 34.8802305,21.4890553 34.8467287,21.5448917 C34.7685576,21.6741132 34.6856006,21.8001441 34.5723324,21.9054357 C34.5133053,21.9596768 34.4383249,21.9963693 34.3713212,22.0410385 C34.2548623,22.1176142 34.1368081,22.1894039 34.0059913,22.2324777 C33.9230343,22.2611936 33.8321007,22.2707656 33.7443577,22.2851235 C33.6167315,22.3042674 33.4891053,22.3154347 33.3566932,22.3042674 C33.248211,22.2946955 33.1445147,22.2723609 33.0440091,22.2404543 C32.9498848,22.2101431 32.8573558,22.1830226 32.7712082,22.1335674 C32.721753,22.1080422 32.6802745,22.072945 32.6356054,22.0410385 C32.2048671,21.721973 31.9065409,21.1731805 31.9065409,20.5669563 L31.9065409,19.1439245 L31.9065409,19.1439245 Z M23.9299057,30.3112139 L23.9299057,20.7392516 L28.7158868,20.7392516 C28.7158868,22.4909207 29.6714877,24.0080767 31.0785662,24.8424328 C31.1647138,24.8950785 31.2540521,24.9381524 31.3433905,24.9860122 C31.4869699,25.0593972 31.628954,25.1327823 31.7789147,25.190214 C31.9464241,25.2572178 32.1219101,25.3050776 32.2989914,25.3513421 C32.4042829,25.3784626 32.5063839,25.4135598 32.6148661,25.4342991 C32.648368,25.4406804 32.6770839,25.453443 32.7105857,25.4598243 C32.8222586,25.4789682 32.9323362,25.467801 33.0440091,25.4789682 C33.1971605,25.4933262 33.3455259,25.5252327 33.501868,25.5252327 C33.5481324,25.5252327 33.5912063,25.5124701 33.6358754,25.5108748 C33.7826455,25.5060888 33.9246296,25.4837542 34.0682091,25.467801 C34.2596483,25.4454664 34.4478969,25.4199411 34.6313595,25.375272 C34.7685576,25.3417701 34.8993744,25.2955056 35.0333819,25.2508365 C35.2120585,25.190214 35.3875445,25.1232103 35.5566492,25.043444 C35.6858707,24.9812262 35.8103062,24.9110318 35.9347417,24.8376468 C36.0942744,24.7419271 36.2458305,24.6398262 36.3941959,24.526558 C36.4611996,24.4755075 36.5377753,24.4404103 36.6015884,24.3861692 C36.6334949,24.3590487 36.6638062,24.3335234 36.6941174,24.3064029 C36.7866463,24.3893599 36.8951286,24.4547683 36.9940389,24.5297486 C37.0929491,24.6063243 37.1886688,24.6844954 37.2939603,24.7530944 C37.4439211,24.8504094 37.6050491,24.9285804 37.7661771,25.0099421 C37.8730641,25.0625879 37.9735697,25.1232103 38.0836472,25.1678795 C38.2687052,25.2428598 38.4649304,25.2955056 38.6595603,25.3465561 C38.7584706,25.3720813 38.8509995,25.4103692 38.9531005,25.4311084 C39.2546173,25.4901355 39.5641107,25.5252327 39.8831761,25.5252327 C40.2022415,25.5252327 40.511735,25.4901355 40.8132518,25.4311084 C40.9169481,25.4103692 41.0110724,25.3720813 41.111578,25.3449608 C41.3046125,25.292315 41.4992424,25.2428598 41.682705,25.1678795 C41.7959733,25.121615 41.8980742,25.0609926 42.0065564,25.0067514 C42.1660891,24.9269851 42.3256218,24.8488141 42.4739873,24.7530944 C42.5808742,24.6844954 42.6765938,24.604729 42.7755041,24.5281533 C42.8744143,24.453173 42.9813013,24.3877645 43.0738302,24.3048075 C43.1663592,24.3877645 43.2732461,24.4515776 43.3721564,24.5281533 C43.472662,24.604729 43.5683816,24.6860907 43.6752685,24.7546898 C43.8236339,24.8504094 43.9831666,24.9285804 44.1426993,25.0083468 C44.2511816,25.0625879 44.3532825,25.1232103 44.4665507,25.1694748 C44.6500133,25.2444552 44.8430479,25.2955056 45.0376778,25.3465561 C45.1381834,25.3736767 45.233903,25.4119645 45.336004,25.4327038 C45.6359255,25.4901355 45.9454189,25.5252327 46.2644843,25.5252327 C46.5835497,25.5252327 46.8930432,25.4901355 47.19456,25.4311084 C47.2950656,25.4103692 47.3891899,25.3736767 47.4881002,25.3465561 C47.6843254,25.2939103 47.8789553,25.2428598 48.0640132,25.1678795 C48.1756861,25.1232103 48.2761917,25.0625879 48.3830786,25.0083468 C48.5442067,24.9285804 48.7037394,24.8488141 48.8537001,24.7514991 C48.9589917,24.6829 49.053116,24.604729 49.1536216,24.5281533 C49.2525319,24.453173 49.3610141,24.3877645 49.4535431,24.3048075 C49.4838543,24.3319281 49.5141655,24.3590487 49.546072,24.3845739 C49.6098851,24.438815 49.6864608,24.4739122 49.7518692,24.5249627 C49.9002347,24.6382309 50.053386,24.7419271 50.2161094,24.8392421 C50.3373543,24.9110318 50.4585991,24.9796309 50.5862253,25.0402533 C50.7617113,25.1248056 50.9419832,25.1918094 51.1286365,25.2556225 C51.2546673,25.2986963 51.3791028,25.3417701 51.5083243,25.3736767 C51.7029542,25.4215365 51.9023701,25.4470617 52.1033813,25.4709916 C52.2373888,25.4869449 52.3682056,25.5076841 52.5038084,25.5108748 C52.5516682,25.5124701 52.5963374,25.5252327 52.6457925,25.5252327 C52.8053252,25.5252327 52.9568813,25.4933262 53.111628,25.4773729 C53.2201102,25.467801 53.3285925,25.4773729 53.43867,25.4598243 C53.4753626,25.453443 53.5088644,25.4406804 53.545557,25.4342991 C53.6173467,25.4199411 53.6859457,25.3992019 53.7561401,25.3816533 C53.960342,25.3321982 54.1581625,25.2731711 54.3496018,25.1965954 C54.4548934,25.1567122 54.5569943,25.1136383 54.6574999,25.0657785 C54.7691728,25.0115374 54.877655,24.950915 54.9845419,24.8886972 C56.150726,24.2282318 57.0185839,23.1099076 57.3137194,21.7650469 C57.3839138,21.9437235 57.4317736,22.1335674 57.4317736,22.3345786 L57.4317736,28.0554214 L55.1759812,30.3112139 L23.9299057,30.3112139 Z M65.4084089,31.6209774 C65.4084089,32.3500418 65.0909388,33.0392231 64.5389556,33.5146306 L55.7869914,41.0158583 C54.7723634,41.8853116 54.2459055,43.1966704 54.3783177,44.5271732 L57.165354,72.399132 C57.1988559,72.7453179 57.0377279,72.9814263 56.9372222,73.0915039 C56.838312,73.1999861 56.6181568,73.3850441 56.2719709,73.3850441 L34.6473128,73.3850441 C34.3027221,73.3850441 34.082567,73.2015815 33.9836567,73.0915039 C33.8847464,72.9814263 33.7220231,72.7469133 33.7539296,72.4023226 L36.5425613,43.1121181 C36.5808492,42.7085003 36.4643903,42.3064779 36.2171146,41.9842219 L31.7470082,36.2027566 L30.8935082,33.501868 L55.1759812,33.501868 C56.0151232,33.501868 56.838312,33.1620633 57.4317736,32.5670063 L59.6875661,30.3112139 C60.2905997,29.7081802 60.6224277,28.9073261 60.6224277,28.0554214 L60.6224277,22.3345786 C60.6224277,20.2574628 59.2839483,18.5026031 57.4317736,17.8421377 L57.4317736,12.7642117 C60.6750735,12.8200481 63.5227323,14.7918724 64.7128463,17.8213984 L65.3126892,19.3289825 C65.374907,19.4550133 65.4084089,19.5938068 65.4084089,19.7310049 L65.4084089,31.6209774 Z M71.789717,30.3112139 L68.599063,30.3112139 L68.599063,20.7392516 L71.789717,20.7392516 L71.789717,30.3112139 Z M84.5523334,14.3579434 L84.5523334,36.692522 L84.5523334,46.2644843 C84.5523334,47.1435095 83.8376269,47.8598114 82.9570064,47.8598114 L76.5756982,47.8598114 C75.6950776,47.8598114 74.9803711,47.1435095 74.9803711,46.2644843 L74.9803711,31.9065409 L74.9803711,19.1439245 L74.9803711,4.78598114 C74.9803711,3.90695593 75.6950776,3.19065409 76.5756982,3.19065409 L82.9570064,3.19065409 C83.8376269,3.19065409 84.5523334,3.90695593 84.5523334,4.78598114 L84.5523334,14.3579434 Z M92.5289686,33.501868 C92.5289686,34.3808932 91.8142621,35.097195 90.9336416,35.097195 L87.7429875,35.097195 L87.7429875,15.9532705 L90.9336416,15.9532705 C91.8142621,15.9532705 92.5289686,16.6695723 92.5289686,17.5485975 L92.5289686,33.501868 Z" id="Shape"></path>
                </g>
            </g>
        </g>
    </g>
</svg>