<?xml version="1.0" encoding="UTF-8"?>
<svg width="73px" height="85px" viewBox="0 0 73 85" version="1.1" xmlns="http://www.w3.org/2000/svg" xmlns:xlink="http://www.w3.org/1999/xlink">
    <!-- Generator: Sketch 45.1 (43504) - http://www.bohemiancoding.com/sketch -->
    <title>head-and-neck</title>
    <desc>Created with Sketch.</desc>
    <defs></defs>
    <g id="Page-1" stroke="none" stroke-width="1" fill="none" fill-rule="evenodd" opacity="0.5">
        <g id="v3" transform="translate(-1147.000000, -576.000000)" fill-rule="nonzero" fill="#000000">
            <g id="Group" transform="translate(781.000000, 350.000000)">
                <g id="cell-one-copy" transform="translate(0.000000, 200.000000)">
                    <g id="head-and-neck" transform="translate(366.000000, 26.000000)">
                        <path d="M45.6535869,48.7304194 C46.2907046,51.2480531 48.3314637,53.2461358 50.9796047,53.7508189 L60.317757,55.5302882 C65.2412397,56.4686188 68.6751776,60.9548747 68.2949444,65.952697 L67.4100281,77.585189 C67.2811728,79.2801314 65.8681702,80.5893339 64.1685471,80.5893339 L8.43616545,80.5893339 C6.73654243,80.5893339 5.32353979,79.2801314 5.19468452,77.585189 L4.30976821,65.952697 C3.92953503,60.9548747 7.36319754,56.4686188 12.2869556,55.5302882 L21.6251079,53.7508189 C24.1152085,53.2764223 26.0662094,51.4796072 26.8203431,49.1737036 C29.6444211,51.5178783 32.7600754,52.7585232 35.9787038,52.7585232 C39.3947451,52.7582479 42.695147,51.3614898 45.6535869,48.7304194 L45.6535869,48.7304194 Z M41.4264182,64.3472375 C41.9553305,64.3472375 42.4704763,64.0752097 42.758198,63.5867711 C43.0406884,63.1076938 43.5404155,62.7954676 44.0946584,62.7519652 L56.0446079,61.8114318 C56.8948324,61.7445262 57.5297475,61.0011304 57.4628419,60.1509059 C57.3992402,59.3419812 56.7235761,58.727716 55.9253893,58.727716 C55.8846401,58.727716 55.8436157,58.729368 55.8023159,58.732672 L43.8523664,59.6732053 C42.2945393,59.7960033 40.8906226,60.6726596 40.0973918,62.019032 C39.6642949,62.7536172 39.9087895,63.7004831 40.6439253,64.1333047 C40.8900719,64.2784045 41.1598971,64.3472375 41.4264182,64.3472375 L41.4264182,64.3472375 Z M31.178019,64.3472375 C31.4445402,64.3472375 31.7143653,64.2781292 31.9605119,64.1330293 C32.6953724,63.7002078 32.939867,62.7536172 32.5067702,62.0187567 C31.7135393,60.6723843 30.309898,59.7954526 28.7520708,59.67293 L16.801846,58.7323967 C16.7608215,58.7290927 16.7197971,58.7274407 16.6793233,58.7274407 C15.8822379,58.7274407 15.2049217,59.3414305 15.1413201,60.1506306 C15.0744144,61.0008551 15.7093295,61.7442509 16.559554,61.8111565 L28.5097789,62.7516898 C29.064297,62.7954676 29.5637489,63.1074185 29.8462393,63.5864958 C30.1342363,64.075485 30.6491067,64.3472375 31.178019,64.3472375 L31.178019,64.3472375 Z M47.9892263,41.1260312 L42.9090798,45.6445009 C40.6827471,47.6244117 38.3512377,48.6285467 35.9789791,48.6285467 C33.7567764,48.6285467 31.5629329,47.7428044 29.4582968,45.9958243 L24.783714,42.1155736 L22.8952134,47.8898315 C22.5909718,48.8204529 21.8079282,49.511811 20.8522516,49.6938053 L11.5140993,51.4732745 C4.51929568,52.8061556 -0.34829469,59.1657689 0.191906244,66.2657492 L1.07682255,77.8982412 C1.36784824,81.7231502 4.60051856,84.7190352 8.43644078,84.7190352 L64.1685471,84.7190352 C68.0044694,84.7190352 71.2371397,81.7228748 71.5281654,77.8979659 L72.4130817,66.2654739 C72.9532826,59.1652182 68.0856922,52.8058803 61.0908886,51.4729992 L51.7527363,49.69353 C50.7348347,49.4994211 49.9124187,48.7235361 49.6574615,47.7169232 L47.9892263,41.1260312 L47.9892263,41.1260312 Z" id="Shape"></path>
                        <path d="M35.9787038,4.12997656 C44.8826579,4.12997656 52.1007556,12.9821683 52.1007556,23.9021017 C52.1007556,34.8217597 44.8826579,48.8978211 35.9787038,48.8978211 C27.0747497,48.8978211 19.856652,34.8217597 19.856652,23.9021017 C19.856652,12.9821683 27.0747497,4.12997656 35.9787038,4.12997656 L35.9787038,4.12997656 Z M26.2135119,19.5452517 C26.9803109,19.5452517 27.7058101,19.084897 28.007023,18.3291113 C29.5998173,14.33212 32.5053935,12.039983 35.9789791,12.039983 C37.0450637,12.039983 37.9090548,11.1759919 37.9090548,10.1099073 C37.9090548,9.04382267 37.0450637,8.17983157 35.9789791,8.17983157 C30.9175552,8.17983157 26.5967737,11.4397597 24.4211021,16.9001394 C24.0262763,17.8902325 24.5092082,19.0130354 25.4995766,19.4075858 C25.7338839,19.5011987 25.9753499,19.5452517 26.2135119,19.5452517 L26.2135119,19.5452517 Z M24.7462689,24.7088238 C25.8123535,24.7088238 26.6763446,23.8445573 26.6763446,22.778748 C26.6763446,21.7129388 25.8120782,20.8486723 24.7462689,20.8486723 C23.6801843,20.8486723 22.8161932,21.7129388 22.8161932,22.778748 C22.8161932,23.8445573 23.6801843,24.7088238 24.7462689,24.7088238 L24.7462689,24.7088238 Z M35.9787038,0 C30.4076407,0 25.2223175,2.5963786 21.37786,7.31115984 C17.733844,11.7803451 15.7266754,17.672445 15.7266754,23.9021017 C15.7266754,30.0557667 17.7104408,37.0505704 21.0331446,42.6128228 C25.0452792,49.3289907 30.3528497,53.0277977 35.9787038,53.0277977 C41.6045579,53.0277977 46.9124037,49.3289907 50.924263,42.6128228 C54.2469668,37.0505704 56.2307322,30.0557667 56.2307322,23.9021017 C56.2307322,17.6727204 54.2238389,11.7806205 50.5795476,7.31115984 C46.7353654,2.5963786 41.5500422,0 35.9787038,0 L35.9787038,0 Z" id="Shape"></path>
                    </g>
                </g>
            </g>
        </g>
    </g>
</svg>