<?xml version="1.0" encoding="UTF-8"?>
<svg width="60px" height="102px" viewBox="0 0 60 102" version="1.1" xmlns="http://www.w3.org/2000/svg" xmlns:xlink="http://www.w3.org/1999/xlink">
    <!-- Generator: Sketch 45.1 (43504) - http://www.bohemiancoding.com/sketch -->
    <title>jumping-rope</title>
    <desc>Created with Sketch.</desc>
    <defs></defs>
    <g id="Page-1" stroke="none" stroke-width="1" fill="none" fill-rule="evenodd" fill-opacity="0.29">
        <g id="v3" transform="translate(-55.000000, -579.000000)" fill-rule="nonzero" fill="#000000">
            <g id="Exercise-tab" transform="translate(46.000000, 579.000000)">
                <g id="jumping-rope" transform="translate(9.000000, 0.000000)">
                    <path d="M57.8985807,52.6473735 L57.8985807,28.1835388 C57.8985807,12.6430717 45.2553108,0 29.7148438,0 C14.1743767,0 1.53110685,12.6430717 1.53110685,28.1835388 L1.53110685,52.6471754 C-0.0433836719,53.8771718 -0.365492578,56.1426315 0.827063151,57.7618924 C2.04140977,59.41067 4.36174286,59.7620976 6.00953,58.5483452 L16.8469297,50.5673344 C17.7894846,49.8731957 18.3487179,48.7743407 18.3554533,47.603774 L18.3554533,34.6730626 C18.3598115,34.2592339 18.6975702,33.9270219 19.1112008,33.9295972 C19.5248314,33.9319744 19.8586282,34.2677521 19.8586282,34.6811846 L19.8604111,96.9787508 C19.8604111,99.4349797 21.8517018,101.426469 24.3081289,101.426469 C26.7643579,101.426469 28.7558467,99.4351778 28.7558467,96.9787508 L28.7558467,61.4283079 L30.676218,61.4283079 L30.676218,96.9789489 C30.676218,99.4351778 32.6675087,101.426667 35.1239358,101.426667 C37.5801648,101.426667 39.5716536,99.435574 39.5716536,96.9789489 C39.5716536,38.1265217 39.5716536,71.8758489 39.5716536,34.6136329 C39.5716536,34.1984175 39.9082238,33.8616492 40.3236373,33.8614511 C40.7388527,33.861253 41.075819,34.1980213 41.075819,34.6134348 C41.075819,34.6336409 41.0756209,34.6544413 41.0750266,34.6756379 L41.0750266,47.6041702 C41.0815639,48.7747369 41.6407972,49.8735918 42.5835502,50.5677306 L53.4209499,58.5487414 C55.0697275,59.763088 57.3896644,59.4100757 58.6034167,57.7622886 C59.7951801,56.1428296 59.4728731,53.8773699 57.8985807,52.6473735 Z M53.3375502,49.2818703 L48.4452984,45.7018259 L48.4452984,34.6360181 L48.4454965,34.6360181 C48.4213284,29.8239963 44.4553872,25.9089666 39.6431673,25.9089666 C37.1804011,25.9089666 22.2643419,25.9089666 19.7867183,25.9089666 C14.9744984,25.9089666 11.0085572,29.8237982 10.9843891,34.633839 L10.9843891,45.7018259 L6.09213727,49.2818703 L6.09213727,28.1835388 C6.09213727,15.1577399 16.6892429,4.56063422 29.7150418,4.56063422 C42.7408408,4.56063422 53.3375502,15.1577399 53.3375502,28.1835388 L53.3375502,49.2818703 Z" id="Shape"></path>
                    <circle id="Oval" cx="29.7146457" cy="15.7787801" r="7.68148521"></circle>
                </g>
            </g>
        </g>
    </g>
</svg>