<?xml version="1.0" encoding="UTF-8"?>
<svg width="60px" height="60px" viewBox="0 0 60 60" version="1.1" xmlns="http://www.w3.org/2000/svg" xmlns:xlink="http://www.w3.org/1999/xlink">
    <!-- Generator: Sketch 45.1 (43504) - http://www.bohemiancoding.com/sketch -->
    <title>right-arrow</title>
    <desc>Created with Sketch.</desc>
    <defs></defs>
    <g id="Page-1" stroke="none" stroke-width="1" fill="none" fill-rule="evenodd" opacity="0.509227808">
        <g id="v3" transform="translate(-1288.000000, -829.000000)" fill-rule="nonzero" fill="#000000">
            <g id="exercise-instructions" transform="translate(781.000000, 730.000000)">
                <g id="right-arrow" transform="translate(507.000000, 99.000000)">
                    <path d="M29.8507562,59.4974047 C46.179375,59.4974047 59.4974047,46.2304019 59.4974047,29.8507562 C59.4974047,13.4711105 46.179375,0.204107735 29.8507562,0.204107735 C13.5221374,0.204107735 0.204107735,13.5221374 0.204107735,29.8507562 C0.204107735,46.179375 13.5221374,59.4974047 29.8507562,59.4974047 Z M29.8507562,4.3883163 C43.883163,4.3883163 55.3131962,15.8183495 55.3131962,29.8507562 C55.3131962,43.883163 43.883163,55.3131962 29.8507562,55.3131962 C15.8183495,55.3131962 4.3883163,43.883163 4.3883163,29.8507562 C4.3883163,15.8183495 15.8183495,4.3883163 29.8507562,4.3883163 Z" id="Shape"></path>
                    <path d="M23.0131471,44.648567 C23.4213626,45.0567825 23.9316319,45.2608902 24.4929282,45.2608902 C25.0031975,45.2608902 25.5644938,45.0567825 25.9727093,44.648567 L39.4438198,31.1774565 C39.8520352,30.769241 40.056143,30.2589717 40.056143,29.6976754 C40.056143,29.1363792 39.8520352,28.6261098 39.4438198,28.2178943 L25.9727093,14.7467838 C25.1562783,13.9303529 23.829578,13.9303529 23.0131471,14.7467838 C22.1967162,15.5632148 22.1967162,16.8899151 23.0131471,17.706346 L35.0044765,29.6976754 L23.0131471,41.6890048 C22.1967162,42.5054358 22.1967162,43.8321361 23.0131471,44.648567 L23.0131471,44.648567 Z" id="Shape"></path>
                </g>
            </g>
        </g>
    </g>
</svg>