<?xml version="1.0" encoding="UTF-8"?>
<svg width="84px" height="84px" viewBox="0 0 84 84" version="1.1" xmlns="http://www.w3.org/2000/svg" xmlns:xlink="http://www.w3.org/1999/xlink">
    <!-- Generator: Sketch 45.1 (43504) - http://www.bohemiancoding.com/sketch -->
    <title>user</title>
    <desc>Created with Sketch.</desc>
    <defs></defs>
    <g id="Page-1" stroke="none" stroke-width="1" fill="none" fill-rule="evenodd" fill-opacity="0.294412364">
        <g id="v3" transform="translate(-40.000000, -405.000000)" fill-rule="nonzero" fill="#000000">
            <g id="Profile-tab" transform="translate(40.000000, 405.000000)">
                <g id="user">
                    <path d="M41.8046875,0 C18.7528227,0 0,18.7543429 0,41.8046875 C0,53.929567 5.19442244,64.8611128 13.4687102,72.5045298 L13.359258,72.6535065 L14.4309781,73.5716895 C20.3657236,78.6520991 27.5880534,81.9067841 35.2284301,83.0879565 C35.7696108,83.1730861 36.315352,83.2430139 36.8626134,83.3068611 C37.457,83.3752688 38.0513866,83.4360756 38.6503338,83.4771202 C39.5305125,83.5424875 40.4167719,83.5850523 41.3106321,83.5956935 C41.4048827,83.5956935 41.4976131,83.6078548 41.5918636,83.6078548 C41.6177065,83.6078548 41.6450696,83.6048145 41.6709125,83.6048145 C41.7165176,83.6048145 41.7606026,83.6078548 41.8062077,83.6078548 C64.8565523,83.609375 83.609375,64.8550321 83.609375,41.8046875 C83.609375,18.7543429 64.8565523,0 41.8046875,0 Z M41.6739528,80.5659938 C41.5371375,80.5659938 41.4033625,80.5568727 41.2680673,80.5553526 C40.5414259,80.5492719 39.8178247,80.5112676 39.0957438,80.4641423 C31.0418807,79.9047196 23.659933,76.8780602 17.7008648,72.1305679 C18.2800497,71.5833065 18.9200415,71.1196545 19.6254006,70.7624145 L33.515198,64.8018261 C34.638604,64.2424034 35.325721,62.998904 35.9900355,61.6657145 C36.4065622,60.8265804 36.3594369,59.8491108 35.8638614,59.0495011 C35.3667656,58.245331 34.5063491,57.7664773 33.5638435,57.7664773 L23.9153216,57.7740781 C23.8818778,57.7710378 20.5785474,57.4366003 18.0930688,56.3694406 C17.6248563,56.1687781 17.4287543,56.0122006 17.372508,56.0030795 C17.3953105,55.9392324 17.4500366,55.8145784 17.586852,55.6215168 C21.0285179,50.7204872 26.8340489,40.9625131 27.0331912,30.6770398 C27.0453526,30.1008952 27.4938028,16.5592168 41.2194219,16.4467241 C49.3751364,16.5136116 53.2318088,21.2945477 55.0316906,25.2941162 C55.9301114,27.2901 56.4591307,29.6706869 56.6506722,32.5681318 C57.2435386,41.5371375 61.3632006,49.9984063 64.7151764,55.5151048 C64.8884759,55.8008969 64.9401616,56.1505361 64.8611128,56.4743324 C64.7866244,56.773806 64.6057241,57.0231139 64.3518557,57.175131 C62.7739188,58.1176366 60.7201685,57.7938403 60.7080071,57.7892798 L50.5806315,57.7664773 C49.49675,57.7664773 48.5588048,58.450554 48.1924438,59.5085926 C47.8230423,60.5757523 48.149879,61.7462835 49.0072551,62.4227594 C50.0865761,63.275575 50.5152642,63.5385645 50.6855233,63.6297747 L62.267702,70.6362403 C63.2618935,71.1789412 64.1359915,71.9207844 64.8398304,72.8161648 C58.1176366,77.8768122 50.1397821,80.5477517 41.6739528,80.5659938 Z M67.2675426,70.9950006 C66.3052747,69.7560616 65.1165014,68.7284264 63.7817918,68.0017849 L52.1996131,60.9953193 C52.1752903,60.9816378 52.0932011,60.9345125 51.9107807,60.8068182 L60.332525,60.8068182 C60.9953193,60.8995486 63.6388957,61.144296 65.9100304,59.7837435 C66.8631773,59.2151997 67.5396531,58.2985369 67.8102435,57.2070545 C68.0853943,56.1018906 67.904494,54.910077 67.3131477,53.9371679 C64.1390318,48.7108219 60.2367543,40.7253665 59.6849324,32.3674693 C59.467548,29.1036634 58.8533991,26.3810381 57.8044815,24.0475764 C55.6397588,19.2377571 51.0108398,13.4869523 41.2194219,13.4063832 C24.552273,13.5431986 23.9958906,30.4414134 23.9928503,30.6147128 C23.802829,40.4502156 17.7084656,50.156504 15.098333,53.8733207 C14.3884134,54.8842341 14.161908,55.8677844 14.4233773,56.7935682 C14.7091693,57.7968807 15.5163798,58.5736878 16.8936543,59.1650341 C19.807821,60.4161344 23.463831,60.7855358 23.7663449,60.8083384 L33.0150619,60.8083384 C32.7611935,61.3008736 32.4145946,61.9256636 32.2367347,62.0442369 L18.3834213,67.9850631 L18.3028523,68.0215472 C17.2189707,68.5627278 16.2521423,69.2832886 15.393246,70.1421849 C7.80151477,63.061231 3.04034091,52.9809807 3.04034091,41.8046875 C3.04034091,20.4295707 20.4295707,3.04034091 41.8046875,3.04034091 C63.1798043,3.04034091 80.5690341,20.4295707 80.5690341,41.8046875 C80.5690341,53.438552 75.4095756,63.8836432 67.2675426,70.9950006 Z" id="Shape"></path>
                </g>
            </g>
        </g>
    </g>
</svg>